<?xml version="1.0" encoding="UTF-8" standalone="no"?>
<!-- Created with Inkscape (http://www.inkscape.org/) -->

<svg
   xmlns:dc="http://purl.org/dc/elements/1.1/"
   xmlns:cc="http://creativecommons.org/ns#"
   xmlns:rdf="http://www.w3.org/1999/02/22-rdf-syntax-ns#"
   xmlns:svg="http://www.w3.org/2000/svg"
   xmlns="http://www.w3.org/2000/svg"
   xmlns:sodipodi="http://sodipodi.sourceforge.net/DTD/sodipodi-0.dtd"
   xmlns:inkscape="http://www.inkscape.org/namespaces/inkscape"
   id="svg2985"
   version="1.1"
   inkscape:version="0.48.1 "
   width="743.75"
   height="1052.5"
   xml:space="preserve"
   sodipodi:docname="SWIRL 1.pdf"><metadata
     id="metadata2991"><rdf:RDF><cc:Work
         rdf:about=""><dc:format>image/svg+xml</dc:format><dc:type
           rdf:resource="http://purl.org/dc/dcmitype/StillImage" /><dc:title></dc:title></cc:Work></rdf:RDF></metadata><defs
     id="defs2989" /><sodipodi:namedview
     pagecolor="#ffffff"
     bordercolor="#666666"
     borderopacity="1"
     objecttolerance="10"
     gridtolerance="10"
     guidetolerance="10"
     inkscape:pageopacity="0"
     inkscape:pageshadow="2"
     inkscape:window-width="1244"
     inkscape:window-height="832"
     id="namedview2987"
     showgrid="false"
     inkscape:zoom="0.98488302"
     inkscape:cx="662.64707"
     inkscape:cy="532.65805"
     inkscape:window-x="0"
     inkscape:window-y="0"
     inkscape:window-maximized="0"
     inkscape:current-layer="g2993" /><g
     id="g2993"
     inkscape:groupmode="layer"
     inkscape:label="SWIRL 1"
     transform="matrix(1.25,0,0,-1.25,0,1052.5)"><path
       inkscape:connector-curvature="0"
       id="path2997"
       style="fill:none;stroke:#000000;stroke-width:0.12;stroke-linecap:round;stroke-linejoin:round;stroke-miterlimit:10;stroke-opacity:1;stroke-dasharray:none"
       d="m 396.57487,615.27149 5.04,-0.12 5.4,-0.72 5.16,-1.2 5.04,-1.92 3.12,-1.44 1.56,-1.08 1.68,-1.08 1.44,-1.2 1.56,-1.32 1.32,-1.32 1.32,-1.44 1.32,-1.44 1.2,-1.56 1.08,-1.68 0.96,-1.56 0.96,-1.8 0.84,-1.68 0.72,-1.8 0.72,-1.8 0.6,-1.92 0.48,-1.92 0.36,-1.8 0.36,-1.92 0.12,-2.04 0.12,-1.92 0,-1.92 -0.12,-1.92 -0.12,-1.92 -0.36,-1.92 -0.36,-1.92 0,-0.24 -1.32,-3.84 -1.32,-3.12 -2.04,-3.48 -2.4,-3.24 -1.8,-2.04 -1.8,-1.56 -1.8,-1.56 -1.8,-1.32 -2.04,-1.32 -2.04,-1.08 -2.16,-1.08 -2.16,-0.84 -2.28,-0.6 -2.28,-0.6 -0.12,0 -3.36,-0.48 -2.88,-0.24 -3.36,0.12 -3.48,0.36 -3.24,0.72 -3.24,1.08 -0.6,0.24 -4.2,2.04 -2.52,1.44 -2.04,1.44 -1.8,1.68 -1.56,1.92 -1.44,2.04 -0.84,1.56 -0.96,2.4 -0.72,2.52 -0.48,2.52 -0.12,0.6 0,2.4 0.12,2.4 0.48,2.4 0.72,2.4 0.6,1.56 1.2,2.16 1.32,2.16 1.68,1.92 0.36,0.36 1.8,1.56 1.92,1.44 2.16,1.2 2.16,0.96 1.8,0.6 2.4,0.48 2.4,0.36 2.4,0 2.4,-0.36 1.68,-0.36 4.08,-1.2 1.08,-0.48 1.08,-0.6 0.84,-0.84 0.84,-0.84 0.72,-0.72 0.6,-1.08 0.48,-0.96 0.48,-1.2 0.12,-0.48 0.24,-2.28 0,-1.2 -0.12,-1.2 -0.36,-1.08 -0.12,-0.24 -0.48,-1.2 -0.6,-1.08 -0.72,-0.96 -0.12,-0.12 -0.84,-0.84 -0.96,-0.84 -0.96,-0.6 -1.08,-0.48 -0.84,-0.36 -1.08,-0.24 -1.2,-0.24 -2.4,0 -0.96,0.24 -1.08,0.24 -0.96,0.48 -0.96,0.48 -0.84,0.48 -0.84,0.72 -0.72,0.72 -0.72,0.84 -0.48,0.84 -0.6,0.96 -0.36,0.96 -0.24,0.96 -0.24,1.08 -0.12,0.96 0,1.08 0.24,1.92 0.48,1.32 0.6,1.2 0.6,1.2 0.12,0.12 -0.96,-0.72 -0.84,-0.6 -0.84,-0.84 -0.72,-0.72 -0.72,-0.96 -0.6,-0.84 -0.6,-0.96 -0.48,-0.96 -0.48,-0.96 -0.36,-1.08 -0.24,-1.08 -0.24,-1.08 -0.24,-1.08 -0.12,-1.08 0,-1.08 0.12,-1.2 0.12,-1.08 0.24,-1.08 0,-0.48 0.6,-1.8 0.72,-1.8 0.84,-1.68 1.08,-1.68 1.2,-1.44 1.32,-1.44 1.56,-1.2 1.56,-1.08 0,0 1.92,-0.96 1.92,-0.72 2.04,-0.6 1.2,-0.24 2.16,-0.12 2.04,0 2.16,0.24 2.04,0.48 1.44,0.48 5.28,2.16 1.08,0.6 1.08,0.6 1.08,0.72 0.96,0.72 0.96,0.72 0.96,0.84 0.96,0.96 0.84,0.96 0.72,0.96 0.84,0.96 0.6,1.08 0.72,1.08 0.6,1.08 0.48,1.08 0.48,1.2 0.48,1.2 0.24,1.2 0.36,1.2 0.24,1.2 0.12,1.2 0.12,1.32 0.12,1.2 0,1.32 -0.12,0.96 -0.36,2.64 -0.48,1.68 -0.6,1.68 -0.72,1.68 -0.72,1.56 -0.84,1.56 -0.96,1.56 -0.96,1.44 -1.08,1.44 -1.2,1.32 -1.2,1.32 -1.2,1.32 -1.44,1.08 -1.32,1.2 -1.44,0.96 -1.56,0.96 -1.32,0.84 -3.12,1.56 -3.36,1.2 -3.36,0.96 -3.48,0.6 -3.48,0.12 -1.32,0 -3.72,-0.24 -3.24,-0.6 -3.36,-1.56 -6.24,-3.72 -5.76,-4.32 -3.84,-3.48 -4.8,-5.4 -4.2,-6 -0.36,-0.48 -3.48,-6.48 -0.96,-2.04 -2.4,-6.84 -1.68,-6.96 -0.6,-4.32 -0.24,-5.28 0.12,-7.08 1.32,-10.92 1.44,-6.96 0.24,-0.6 5.64,-1.8 5.4,-2.4 1.44,-0.72 4.44,-2.76 4.08,-3.12 3.84,-3.6 3.36,-3.96 3.12,-4.2 0.48,-0.84 2.28,-4.08 1.32,-3 1.8,-6.24 1.08,-6.48 0,-0.6 0.24,-6.72 0,-1.92 -0.6,-5.76 -1.2,-5.76 -1.68,-5.52 -2.28,-5.4 -1.08,-1.92 8.4,0.36 5.52,-0.36 5.76,-0.96 5.76,-1.56 5.4,-2.16 3.96,-1.92 3.36,-1.92 3.24,-2.16 3.12,-2.4 2.88,-2.52 2.76,-2.88 2.52,-2.88 2.4,-3.12 2.16,-3.24 1.92,-3.48 0.72,-1.56 -5.28,5.28 -5.88,4.68 -0.48,0.24 -6.36,3.96 -2.04,0.96 -6.6,2.76 -6.96,1.92 -0.6,0.12 -7.44,1.2 -2.16,0.12 -6.24,0.12 -7.32,-0.72 -7.2,-1.44 -0.36,-0.12 -4.2,-1.32 -0.6,-0.36 -0.12,-1.44 4.32,1.08 8.16,0.72 8.16,-0.48 8.04,-1.56 7.92,-2.76 7.44,-3.84 6.84,-4.92 6.12,-5.76 5.4,-6.96 4.44,-7.92 3.36,-8.88 2.16,-9.96 0.84,-9.84 -3,8.52 -3.6,7.32 -4.44,6.72 -5.04,6.12 -5.76,5.52 -6,4.44 -6.48,3.84 -6.84,3 -6.96,2.16 -3.48,0.6 4.92,-2.76 3.84,-2.76 3.6,-3 3.12,-3.36 2.88,-3.6 2.52,-3.96 0.84,-1.44 2.28,-5.16 1.32,-3.72 0.96,-3.84 0.6,-3.84 0.12,-3.96 -0.24,-3.96 -0.24,-2.28 -0.96,-4.32 -1.44,-4.2 -1.92,-4.08 -1.08,-1.8 -2.52,-3.72 -2.04,-2.4 -2.88,-2.76 -3.12,-2.52 -3.36,-2.16 -3.48,-1.92 -3.72,-1.44 -3.84,-1.08 -2.16,-0.36 -3.36,-0.24 -3.12,0 -1.56,0.24 -1.44,0.24 -1.44,0.36 -1.44,0.36 -1.44,0.48 -1.32,0.48 -1.44,0.72 -1.32,0.6 -1.2,0.72 -1.32,0.84 -1.2,0.84 -1.2,0.96 -1.08,0.96 -1.08,1.08 -0.96,1.08 -0.96,1.08 -0.96,1.2 -0.84,1.32 -0.84,1.2 -0.36,0.72 -1.44,3.24 -1.08,3 -0.72,2.52 -0.48,2.52 -0.12,2.28 -1.08,-1.8 -1.32,-1.8 -1.56,-1.56 -1.08,-0.96 -1.56,-1.08 -1.56,-0.96 -1.8,-0.84 -1.8,-0.6 -1.8,-0.36 -1.92,-0.24 -1.92,-0.12 -1.92,0.12 -1.92,0.36 -1.2,0.36 -2.04,0.72 -1.92,0.96 -1.08,0.72 0.24,-4.32 0.72,-4.2 0.48,-1.92 1.56,-4.56 1.08,-2.64 2.88,-6.6 0.12,-0.6 0,-1.32 -0.12,-0.72 -0.24,-0.6 -0.24,-0.6 -0.12,-0.12 -0.36,-0.6 -0.36,-0.6 -0.48,-0.48 -0.48,-0.36 -0.6,-0.36 -0.6,-0.36 -0.6,-0.24 -0.6,-0.12 -0.72,-0.12 -0.6,0 -0.72,0.12 -0.12,0 -0.72,0.12 -0.72,0.24 -0.6,0.36 -0.6,0.36 -0.48,0.48 -0.48,0.48 -0.48,0.6 -0.24,0.6 -0.36,0.6 -0.24,0.6 0,0.36 -1.32,6.24 -0.72,6.36 0,6.36 0.48,6.36 0.48,2.4 -6.12,-8.76 -0.36,-1.32 -0.6,-4.2 -0.12,-4.68 0.24,-4.92 0.96,-5.4 1.56,-5.28 1.8,-4.44 0,-1.08 -0.12,-0.6 -0.24,-0.48 -0.24,-0.48 -0.24,-0.48 -0.36,-0.48 -0.12,0 -0.36,-0.48 -0.48,-0.36 -0.48,-0.24 -0.6,-0.24 -0.48,-0.24 -0.6,-0.12 -0.6,-0.12 -0.6,0.12 -0.6,0 0,0 -0.6,0.12 -0.48,0.24 -0.6,0.24 -0.48,0.36 -0.36,0.36 -0.48,0.36 -0.36,0.48 0,0.12 -0.84,2.52 -0.6,2.64 -0.24,2.64 -0.12,0.36 0,6 0.48,5.88 0.6,3.48 0.12,0.96 -9.12,-11.4 -0.36,-0.84 -0.72,-4.44 -0.36,-4.44 0.24,-4.56 0.72,-4.44 0.48,-1.8 0.24,-1.56 0,-0.48 -0.12,-0.36 -0.24,-0.48 -0.24,-0.36 -0.24,-0.36 -0.36,-0.36 -0.36,-0.36 -0.36,-0.24 -0.48,-0.24 -0.36,-0.12 -0.12,0 -0.48,-0.12 -0.48,-0.12 -0.84,0 -0.48,0.12 -0.48,0.12 -0.36,0.24 -0.36,0.12 -0.36,0.36 -0.36,0.24 -0.36,0.36 0,0.12 -0.24,0.36 -0.24,0.36 -0.24,0.48 -0.12,0.48 -0.12,0.48 0,4.56 0.6,5.64 0.72,3.84 -6.72,-7.32 -0.36,-1.08 -0.48,-3.12 -0.24,-3.24 0.12,-2.76 0.48,-3 0,-0.6 -0.12,-0.24 -0.24,-0.24 -0.12,-0.24 -0.24,-0.24 -0.24,-0.12 -0.24,-0.24 -0.24,-0.12 -0.24,0 -0.36,-0.12 -0.84,0 -0.24,0.12 -0.24,0.12 -0.24,0.12 -0.24,0.12 -0.12,0.12 -0.24,0.24 -0.24,0.12 -0.12,0.24 -0.24,0.36 0,0.24 -0.12,0.24 0,0.24 -0.12,1.56 0.24,3.12 0.6,3 0.24,0.84 -11.04,-10.08 -0.12,0 -0.12,-0.12 -0.72,0 -0.12,0.12 -0.12,0 0,0.12 -0.12,0 -0.12,0.12 0,0.12 -0.12,0.12 0,0 -0.12,0.12 0,0.48 0.36,0.72 9.36,10.92 -3.24,-1.44 -2.04,-0.6 -2.04,-0.36 -1.08,-0.12 -0.72,0 -0.24,0.12 -0.12,0 -0.24,0.12 -0.24,0.12 -0.12,0.24 -0.24,0.12 -0.12,0.24 -0.12,0.12 0,0.12 -0.12,0.24 -0.12,0.36 -0.12,0.24 0,0.84 0.12,0.36 0.12,0.24 0.12,0.24 0.12,0.24 0.24,0.24 0.12,0.24 0.24,0.24 0.12,0 0.84,0.36 4.32,0.24 2.76,0.48 2.52,0.84 2.52,1.08 0.72,0.36 1.08,0.6 5.64,7.08 -5.04,-2.28 -4.2,-1.32 -2.76,-0.48 -1.68,-0.24 -0.36,0.12 -0.48,0.12 -0.48,0.24 -0.36,0.12 -0.36,0.36 -0.36,0.24 -0.36,0.36 -0.24,0.36 -0.24,0.48 -0.12,0.36 -0.12,0.48 -0.12,0.48 0,0.96 0.12,0.48 0.12,0.36 0.12,0.48 0.24,0.36 0.36,0.36 0.24,0.36 0.24,0.24 0.96,0.6 2.88,0.72 3,0.24 2.76,0.12 1.32,0 3.72,0.84 3.72,1.2 3.48,1.68 1.08,0.72 0.84,0.84 8.04,10.8 0.36,0.72 -4.92,-3.24 -4.68,-2.4 -4.8,-1.92 -4.92,-1.44 -5.16,-0.96 -1.44,-0.24 -0.48,0.12 -0.48,0.12 -0.48,0.24 -0.48,0.24 -0.48,0.36 -0.36,0.24 -0.36,0.36 -0.36,0.48 -0.24,0.36 -0.24,0.48 -0.24,0.48 -0.12,0.48 -0.12,0.6 -0.12,0.48 0,0.48 0.12,0.6 0.12,0.48 0.12,0.48 0.24,0.48 0.24,0.48 0.36,0.48 0.24,0.36 0.48,0.36 0.36,0.36 0.48,0.24 0.48,0.24 0.48,0.12 0.48,0.24 0.48,0 0.6,0.12 0.48,-0.12 0,0 4.2,-0.12 5.4,0.36 5.28,0.96 1.68,0.36 4.8,1.68 4.44,2.16 4.32,2.64 0.96,0.72 0.72,0.72 5.88,8.4 -6,-3.24 -5.04,-2.16 -5.4,-1.68 -5.52,-1.2 -5.52,-0.48 -3.12,-0.12 -0.72,0.12 -0.6,0.24 -0.6,0.24 -0.48,0.24 -0.6,0.48 -0.48,0.36 -0.12,0.24 -0.36,0.48 -0.36,0.6 -0.24,0.6 -0.24,0.6 -0.12,0.6 0,1.56 0.12,0.6 0.24,0.6 0.24,0.6 0.36,0.48 0.48,0.48 0.12,0.24 0.48,0.36 0.48,0.36 0.48,0.36 0.6,0.12 0.48,0.24 0.6,0.12 0.36,0 4.56,-0.96 5.16,-0.48 5.28,0.12 5.16,0.72 3.36,0.72 3.96,1.44 2.64,1.32 0.72,0.36 -0.12,2.04 0,0.72 -5.52,2.04 -5.16,0.72 -5.28,0.12 -5.28,-0.36 -5.16,-0.84 -5.04,-1.44 -0.6,-0.24 -8.64,-3.12 -0.72,-0.12 -0.72,0.12 -0.84,0 -0.6,0.24 -0.72,0.24 -0.6,0.36 -0.72,0.48 -0.48,0.36 -0.24,0.36 -0.48,0.48 -0.48,0.6 -0.36,0.72 -0.24,0.72 -0.24,0.72 -0.12,0.72 0,1.56 0.12,0.72 0.24,0.6 0.36,0.72 0.36,0.72 0.36,0.6 0.6,0.48 0.48,0.6 0.6,0.36 0.72,0.36 0.72,0.24 0.24,0.12 7.32,1.2 7.44,0.36 3.72,-0.12 7.8,-0.96 5.16,-1.08 0.6,0 -9.6,7.56 -5.4,1.2 -5.64,0.6 -5.88,0 -6.24,-0.72 -6,-1.32 -4.56,-1.56 -0.6,0 -0.6,0.12 -0.48,0.24 -0.6,0.24 -0.48,0.24 -0.48,0.36 -0.48,0.36 -0.36,0.48 -0.36,0.36 -0.36,0.6 -0.24,0.48 -0.12,0.48 -0.24,0.6 0,0.6 -0.12,0.6 0,0.48 0.12,0.6 0.12,0.6 0.24,0.48 0.24,0.6 0.24,0.48 0.36,0.48 0.36,0.36 0.48,0.48 0.48,0.24 0.48,0.36 0.36,0.12 3.96,0.84 4.08,0.48 4.08,-0.12 2.52,-0.24 11.52,-2.28 0.6,0 -12.12,11.04 -1.8,0.6 -5.04,1.2 -5.16,0.6 -5.28,0 -4.92,-0.6 -2.64,-0.36 -0.48,0.12 -0.36,0.24 -0.48,0.24 -0.36,0.36 -0.36,0.36 -0.36,0.36 -0.24,0.48 -0.24,0.48 -0.12,0.48 -0.12,0.24 -0.12,0.6 0,0.96 0.12,0.6 0.12,0.48 0.24,0.48 0.24,0.48 0.24,0.36 0.36,0.48 0.36,0.36 0.48,0.24 0.48,0.24 0.24,0.24 1.44,0.36 5.28,-0.36 5.16,-0.84 4.68,-1.2 0.72,-0.12 -7.8,8.04 -0.96,0.36 -3.24,0.84 -3.24,0.48 -3.24,0.12 -3.12,-0.24 -1.32,0 -0.24,0.12 -0.24,0.12 -0.24,0.24 -0.24,0.24 -0.24,0.24 -0.12,0.24 -0.12,0.24 -0.12,0.36 0,0.48 -0.12,0.36 0.12,0.24 0,0.36 0.12,0.36 0.12,0.24 0.12,0.36 0.24,0.24 0.24,0.24 0.24,0.24 0.24,0.12 0.24,0.24 0.24,0 2.04,0.12 2.64,-0.24 2.52,-0.48 2.52,-0.84 0.6,0 -9.72,12.12 0,0.12 -0.12,0.12 0,0.72 0.12,0.12 0,0.12 0.12,0.12 0.12,0.12 0.12,0.12 0,0.12 0.12,0 0.12,0.12 0.72,0 0.6,-0.24 10.44,-10.08 0.48,-0.48 -1.2,3 -0.6,2.16 -0.24,2.16 -0.12,2.28 0,0.6 0.12,0.24 0.12,0.24 0.24,0.24 0.12,0.24 0.24,0.24 0.24,0.24 0.36,0.12 0.24,0.12 0.24,0.12 0.24,0 0.36,0.12 0.24,0 0.36,-0.12 0.36,0 0.24,-0.12 0.36,-0.12 0.24,-0.12 0.24,-0.24 0.24,-0.24 0.24,-0.24 0.24,-0.24 0.12,-0.24 0.12,-0.12 0,-4.32 0.24,-3.36 0.6,-2.76 0.96,-3.12 1.08,-2.52 0.6,-0.84 6.48,-6 0.6,-0.36 -1.68,4.32 -1.32,4.32 -0.72,4.56 -0.12,1.44 0,0.48 0.12,0.48 0.12,0.48 0.12,0.36 0.24,0.48 0.24,0.36 0.24,0.36 0.24,0.24 0.48,0.36 0.36,0.24 0.48,0.36 0.48,0.12 0.48,0.24 1.56,0 0,0 0.6,-0.12 0.48,-0.12 0.48,-0.24 0.48,-0.24 0.36,-0.36 0.48,-0.36 0.36,-0.36 0.12,-0.12 0.48,-1.08 0.48,-3.36 0.12,-3.36 -0.12,-2.52 -0.12,-1.68 0.6,-4.32 1.08,-4.2 1.56,-3.96 0.72,-1.44 0.6,-0.6 12.48,-10.68 -3.36,6.12 -2.28,5.28 -1.8,5.64 -1.2,5.64 -0.6,5.76 0,1.08 0.12,0.6 0.24,0.6 0.24,0.6 0.36,0.6 0.36,0.48 0.48,0.48 0.6,0.36 0.48,0.36 0.6,0.24 0.6,0.24 0.6,0.12 0.36,0.12 1.2,0 0.72,-0.12 0.6,-0.12 0.6,-0.24 0.6,-0.36 0.48,-0.36 0.48,-0.36 0.48,-0.48 0.36,-0.6 0.36,-0.48 0.24,-0.6 0.12,-0.72 0.12,-0.36 0,-4.68 -0.48,-3.72 0.12,-5.16 0.48,-5.16 1.08,-4.56 1.68,-5.16 2.28,-5.04 2.4,-4.2 9.36,-7.68 -0.36,1.2 -2.64,5.64 -2.04,6 -1.44,6.12 -0.84,6.24 -0.12,1.68 -0.12,5.4 0.24,2.76 0.24,0.72 0.24,0.6 0.24,0.6 0.36,0.6 0.48,0.48 0.48,0.48 0.6,0.36 0.6,0.36 0.6,0.36 0.6,0.12 0.72,0.24 1.2,0 0.72,-0.12 0.72,-0.24 0.72,-0.24 0.72,-0.36 0,0 0.6,-0.36 0.48,-0.48 0.48,-0.48 0.36,-0.6 0.24,-0.48 0.36,-0.6 0.12,-0.72 0.12,-0.6 0.12,-0.48 -1.68,-6.36 -0.72,-4.68 -0.36,-4.92 0.36,-5.88 0.36,-2.88 0.96,-4.44 1.56,-4.32 0.96,-1.92 0.36,-0.72 2.04,2.64 1.68,1.56 1.8,1.44 0.36,0.24 2.28,1.2 2.16,0.96 0.6,5.64 1.2,5.64 1.8,5.52 1.8,4.2 3.12,5.76 3.72,5.4 3.48,4.08 4.8,4.56 5.4,4.08 3.96,2.4 -0.84,7.92 -1.56,7.32 -2.4,7.44 -3.24,7.08 -2.64,4.44 0,-4.08 -0.36,-3.12 -0.6,-3.12 -0.6,-1.68 -0.72,-1.68 -0.72,-1.68 -0.84,-1.56 -1.08,-1.44 -1.08,-1.56 -1.2,-1.32 -1.2,-1.32 -1.44,-1.2 -1.44,-1.08 -1.44,-0.96 -1.56,-0.96 -0.12,0 -1.56,-0.6 -3.36,-0.84 -3.6,-0.6 -3.48,-0.12 -3.6,0.12 -3.12,0.48 -3.96,0.96 -3.72,1.44 -3.6,1.8 -1.32,0.84 -2.88,1.92 -2.64,2.28 -2.28,2.52 -2.16,2.76 -1.2,1.68 -1.08,2.76 -0.96,2.88 -0.72,2.76 -0.6,3 -0.36,2.88 -0.12,3 0,2.88 0.24,3 0.48,2.88 0.6,2.88 0.72,2.88 1.08,2.76 0,0.12 2.16,4.56 2.52,4.2 3.12,3.96 1.2,1.32 3.24,3.12 3.48,2.76 3.72,2.28 3.96,2.04 4.08,1.56 2.16,0.6 9.24,1.92 -0.24,8.52 0,1.44 0.96,10.2 1.2,6.72 2.52,9.24 3.36,9 4.32,8.64 0.48,0.84 5.4,8.52 4.2,5.28 7.32,7.92 0.12,0.12 4.68,4.2 2.76,2.16 4.8,2.64 4.92,2.16 1.68,0.48 5.4,1.44 5.52,0.72 2.04,0.12 z m -56.04,-230.52 0.72,-0.12 0.72,0 0.72,-0.12 0.6,-0.12 0.72,-0.24 0.6,-0.24 0.72,-0.24 0.6,-0.36 0.6,-0.36 0.48,-0.36 0.6,-0.48 0.48,-0.36 0.48,-0.48 0.48,-0.6 0.36,-0.48 0.48,-0.6 0.36,-0.6 0.24,-0.6 0.36,-0.6 0.24,-0.72 0.12,-0.6 0.24,-0.72 0.12,-0.72 0,-2.88 -0.12,-0.72 -0.24,-0.72 -0.12,-0.6 -0.24,-0.72 -0.36,-0.6 -0.24,-0.6 -0.36,-0.6 -0.48,-0.48 -0.36,-0.6 -0.48,-0.48 -0.48,-0.48 -0.48,-0.48 -0.6,-0.48 -0.48,-0.36 -0.6,-0.36 -0.6,-0.24 -0.72,-0.36 -0.6,-0.24 -0.72,-0.12 -0.6,-0.24 -0.72,-0.12 -2.88,0 -0.72,0.12 -0.72,0.24 -0.6,0.12 -0.72,0.24 -0.6,0.36 -0.6,0.24 -0.6,0.36 -0.6,0.36 -0.48,0.48 -0.6,0.48 -0.48,0.48 -0.36,0.48 -0.48,0.6 -0.36,0.48 -0.36,0.6 -0.36,0.6 -0.24,0.6 -0.24,0.72 -0.24,0.6 -0.12,0.72 -0.12,0.72 0,0.72 -0.12,0.72 0.12,0.72 0,0.72 0.12,0.72 0.12,0.72 0.24,0.6 0.24,0.72 0.24,0.6 0.36,0.6 0.36,0.6 0.36,0.6 0.48,0.48 0.36,0.6 0.48,0.48 0.6,0.36 0.48,0.48 0.6,0.36 0.6,0.36 0.6,0.36 0.6,0.24 0.72,0.24 0.6,0.24 0.72,0.12 0.72,0.12 0.72,0 0.72,0.12 z m 19.2,26.04 -2.88,-6.36 -3.36,-6.12 -4.08,-5.76 -0.72,-0.96 -2.04,0.84 -2.16,0.6 -2.28,0.36 0,0 1.92,3.36 2.28,3.24 2.52,3 2.88,2.64 3.12,2.4 3.36,2.04 1.44,0.72 z m 16.44,3.96 4.44,-0.12 4.44,-0.72 4.32,-1.2 4.08,-1.56 1.08,-0.48 3.96,-2.28 3.72,-2.64 1.92,-1.68 2.76,-2.88 2.52,-3.24 2.28,-3.36 1.8,-3.6 1.44,-3.72 0.96,-3.12 0.84,-4.56 0.36,-4.44 0,-2.52 -0.36,-3.6 -0.6,-2.76 -0.96,-2.88 -1.2,-2.64 -1.44,-2.52 -0.72,-1.08 -1.8,-2.28 -2.04,-2.04 -2.28,-1.92 -2.4,-1.56 -2.52,-1.44 -2.64,-1.2 -1.2,-0.36 -3,-0.84 -3.24,-0.48 -3.12,-0.12 -2.52,0.12 -2.88,0.48 -2.76,0.72 -2.76,1.08 -1.8,0.96 -1.8,1.2 -1.56,1.44 -1.56,1.56 -0.96,1.44 -1.2,1.92 -0.96,2.04 -0.72,2.16 -0.24,0.84 -0.24,1.92 -0.12,2.04 0,1.92 0.24,2.04 0.48,1.92 0.72,1.8 0.84,1.8 0.96,1.8 1.2,1.44 1.32,1.56 1.08,0.72 1.08,0.48 1.08,0.48 1.2,0.36 1.2,0.24 1.2,0.12 1.32,0 1.2,-0.24 1.2,-0.24 1.2,-0.36 1.08,-0.48 1.08,-0.6 0.36,-0.24 1.08,-0.84 -1.2,0.12 -1.2,-0.12 -1.08,-0.24 -1.2,-0.36 -1.08,-0.48 -1.08,-0.48 -0.6,-0.48 -0.96,-0.84 -0.84,-0.84 -0.72,-0.96 -0.6,-1.08 -0.48,-1.08 -0.36,-1.08 -0.24,-1.08 0,-2.4 0.12,-0.84 0.24,-1.2 0.36,-1.08 0.6,-1.2 0.6,-0.96 0.48,-0.6 0.84,-0.96 0.96,-0.96 0.96,-0.72 0.36,-0.12 1.08,-0.6 1.08,-0.48 1.2,-0.36 1.2,-0.12 1.2,-0.12 1.2,0.12 1.2,0.24 1.2,0.36 1.08,0.48 0.48,0.24 1.08,0.6 0.96,0.84 0.84,0.84 0.84,0.96 0.6,0.96 0.6,1.2 0.36,1.08 0.24,1.2 0,0.12 0.24,2.16 0,2.16 -0.36,2.16 -0.36,1.8 -0.6,1.68 -0.84,1.8 -0.96,1.56 -1.08,1.56 -1.2,1.32 -1.44,1.32 -1.56,1.08 -1.56,0.96 -0.96,0.48 -1.8,0.72 -1.92,0.48 -1.92,0.36 -1.56,0.12 -2.4,-0.24 -2.4,-0.36 -2.4,-0.72 -2.28,-0.96 -1.32,-0.72 -2.04,-1.32 -1.92,-1.56 -1.68,-1.68 -1.44,-1.92 -1.2,-2.04 -0.36,-0.72 -0.24,1.92 -0.48,1.92 -0.6,1.8 -0.72,1.8 -0.96,1.68 -1.2,1.56 -0.84,1.08 6.12,7.8 3.72,5.64 4.92,9.24 1.92,4.32 0.48,0.24 4.44,0.24 z m -19.44,99.84 4.44,-1.92 4.32,-2.4 3.96,-2.88 1.2,-0.96 3.24,-3.24 2.88,-3.12 2.4,-3.6 2.16,-3.72 1.68,-3.96 1.32,-4.08 0.84,-4.08 0.48,-4.32 0,-5.76 -0.72,-4.92 -0.6,-2.88 -1.44,-4.56 -2.04,-4.44 -0.48,-0.84 0.12,4.44 -0.72,6.84 -1.32,6.72 -0.36,1.2 -2.16,6.36 -2.88,6.12 -2.64,4.32 -4.44,6.48 -5.16,9.36 -4.08,9.84 z m -20.88,2.28 1.68,-9 1.56,-5.28 3.72,-10.2 1.56,-3.36 -2.88,1.2 -2.4,0.48 -2.28,0.36 -2.4,0 -1.32,-0.12 -2.28,-0.36 -2.28,-0.6 -2.16,-0.96 -0.96,-0.48 -2.28,-1.44 -2.16,-1.68 -0.48,-0.48 -0.84,-0.96 -0.84,-1.08 -0.72,-1.2 -0.48,-1.2 -0.36,-1.2 -0.24,-1.32 -0.12,-1.44 0,-0.84 0.12,-1.32 0.24,-1.32 0.48,-1.32 0.6,-1.2 0.72,-1.2 0.72,-0.96 1.56,-1.56 2.4,-1.68 0.96,-0.48 1.08,-0.48 1.2,-0.36 1.08,-0.12 1.2,-0.12 1.08,0.12 1.2,0.24 1.08,0.24 0.12,0.12 0.6,0.24 0.72,0.24 0.6,0.36 0.6,0.36 0.48,0.48 0.6,0.48 0.48,0.48 0.48,0.48 0.48,0.6 0.36,0.6 0.36,0.6 0.24,0.6 0.36,0.72 0.12,0.6 0.24,0.72 0.12,0.72 0.12,0.72 0,2.04 -0.12,0.72 -0.12,0.72 -0.24,0.72 -0.24,0.6 -0.24,0.6 -0.36,0.72 -0.36,0.6 -0.36,0.6 -0.48,0.48 -0.48,0.6 -0.48,0.48 -0.6,0.36 -0.6,0.48 -0.6,0.36 -0.6,0.36 -0.6,0.24 -0.36,0.12 2.64,0.36 1.56,0 1.44,-0.24 1.44,-0.36 1.32,-0.6 1.32,-0.6 1.2,-0.84 1.2,-0.96 0.48,-0.48 0.96,-1.2 0.84,-1.2 0.72,-1.32 0.48,-1.44 0.24,-0.6 0.24,-1.32 0.24,-1.32 0,-1.44 -0.12,-0.12 -0.36,-2.16 -0.6,-2.04 -0.84,-2.04 -1.08,-1.92 -1.2,-1.8 -1.44,-1.68 -0.96,-1.08 -1.68,-1.44 -1.8,-1.2 -1.8,-1.08 -2.04,-0.96 -2.04,-0.6 -2.16,-0.48 -0.84,-0.12 -2.28,-0.24 -2.16,0.12 -2.28,0.24 -2.16,0.48 -2.04,0.72 -2.04,0.84 -1.92,1.08 -1.8,1.32 -1.32,1.08 -1.56,1.44 -1.44,1.56 -1.44,1.68 -1.2,1.8 -1.2,1.8 -1.08,1.92 -0.84,1.92 -0.72,2.04 -0.72,2.04 -0.48,2.04 -0.36,2.16 0,0.36 -0.24,3.84 0.12,2.76 0.36,3.24 0.84,3.12 0.96,3.12 1.44,2.88 1.56,2.76 0.36,0.48 2.04,2.64 2.28,2.4 2.52,2.16 0.24,0.24 3.6,2.52 3.96,2.16 4.08,1.8 4.2,1.32 4.44,0.96 1.92,0.24 z m 8.76,20.52 0.48,-4.56 2.28,-12 1.92,-6.6 4.32,-11.28 5.4,-10.44 6.12,-9.96 3.36,-6.6 2.52,-7.08 1.32,-5.16 1.08,-7.32 0.36,-7.32 -0.24,-4.44 -0.12,-0.6 -0.96,-0.36 -0.84,7.92 -1.68,7.92 -2.52,7.68 -3.12,7.44 -2.76,5.04 -5.52,8.4 -3.84,6.72 -3,6.96 -2.4,7.32 -1.68,7.44 -0.48,4.08 -0.48,6 0.24,9.24 0.12,0.96 0.12,0.6 z" /></g></svg>